<?xml version="1.0" encoding="utf-8"?>
<svg xmlns="http://www.w3.org/2000/svg" xmlns:xlink="http://www.w3.org/1999/xlink" version= "1.1" width="1920px" height="1128px" viewBox="0 0 1920 1128">
<g id="layer1">
<g>
<g style="fill:rgb(106,153,78); fill-opacity:1.0; stroke-linejoin: miter">
</g>
<g style="fill:rgb(106,153,78); fill-opacity:1.0; stroke-linejoin: miter">
<path d="M1070.4515,529.9318L1064.2177,529.9337C1063.527,513.24194,1050.5206,499.42972,1033.3702,496.322C1035.327,494.48038,1036.4781,491.94812,1036.4781,489.07053C1036.4781,483.31537,1031.8739,478.71133,1026.119,478.71133C1020.3638,478.71133,1015.75977,483.31537,1015.75977,489.07053C1015.75977,491.94812,1016.91077,494.59537,1018.86755,496.43716C1001.71716,499.5449,988.7107,513.3572,988.02014,530.0468L981.57434,530.0487C981.57434,532.3489,981.57434,531.08276,981.57434,532.3489C981.57434,533.61505,981.57434,532.7346,981.57434,534.651L1070.4515,534.65283C1070.4515,533.60596,1070.4515,534.00073,1070.4515,532.7346C1070.4515,531.4685,1070.4515,530.99207,1070.4515,529.9318 Z M1026.119,483.31537C1029.3417,483.31537,1031.8739,485.84763,1031.8739,489.07053C1031.8739,492.29343,1029.3417,494.8257,1026.119,494.8257C1022.8961,494.8257,1020.3638,492.29343,1020.3638,489.07053C1020.3638,485.84763,1022.8961,483.31537,1026.119,483.31537 Z M1026.119,500.35052C1044.0748,500.35052,1058.8079,513.5873,1059.6136,530.0468L992.62415,530.0487C993.42993,513.47217,1008.16296,500.35052,1026.119,500.35052 Z"/>
</g>
<g style="fill:rgb(106,153,78); fill-opacity:1.0; stroke-linejoin: miter">
<path d="M1070.4515,542.47797L981.57434,542.47986C981.57434,543.1908,981.57434,543.5138,981.57434,544.7799C981.57434,546.046,981.57434,545.80475,981.57434,547.08203L1070.4515,547.08386C1070.4515,545.80475,1070.4515,546.19946,1070.4515,544.93335C1070.4515,543.66724,1070.4515,544.0622,1070.4515,542.47797 Z"/>
</g>
</g>
</g>
</svg>