<?xml version="1.0" encoding="utf-8"?>
<svg xmlns="http://www.w3.org/2000/svg" xmlns:xlink="http://www.w3.org/1999/xlink" version= "1.1" width="1648px" height="338px" viewBox="192 348 1648 338">
<g id="layer1">
<g>
<g style="fill:rgb(120,180,93); fill-opacity:1.0; stroke-linejoin: miter">
<path d="M620.77106,594.54364L591.2208,594.5869C587.8604,516.33765,526.13245,451.6549,444.81778,437.17676C454.0842,428.53262,459.5274,416.65524,459.51218,403.165C459.4823,376.1849,437.6331,354.6251,410.35123,354.65585C383.07056,354.68655,361.269,376.29553,361.2991,403.27545C361.3142,416.7657,366.7851,429.17038,376.06982,437.79373C294.78864,452.45395,233.20578,517.27576,230.01988,595.52094L199.4652,595.5652C199.47728,606.3476,199.4706,600.41187,199.47728,606.3476C199.48395,612.28326,199.47897,608.15546,199.48949,617.1393L620.79584,616.6767C620.7904,611.7676,620.7925,613.61865,620.7856,607.6829C620.7792,601.7472,620.7766,599.51355,620.77106,594.54364 Z M410.37546,376.2401C425.65344,376.223,437.67062,388.08066,437.68726,403.1895C437.70416,418.2985,425.71368,430.18353,410.43573,430.20065C395.15878,430.21777,383.14172,418.3599,383.1247,403.25095C383.10803,388.14197,395.0985,376.25742,410.37546,376.2401 Z M410.4645,456.1011C495.58182,456.00546,565.4918,517.9814,569.39667,595.14014L251.84442,595.5065C255.57687,517.79047,325.34744,456.19678,410.4645,456.1011 Z"/>
</g>
<g style="fill:rgb(120,180,93); fill-opacity:1.0; stroke-linejoin: miter">
<path d="M620.8363,653.3594L199.53023,653.8416C199.5341,657.1741,199.53612,658.6885,199.54285,664.6239C199.54947,670.5598,199.54782,669.42786,199.55486,675.41565L620.86035,674.9535C620.8538,668.95575,620.85583,670.8067,620.84937,664.871C620.84247,658.9354,620.8449,660.7865,620.8363,653.3594 Z"/>
</g>
<g style="fill:rgb(120,180,93); fill-opacity:1.0; stroke-linejoin: miter">
</g>
<g style="fill:rgb(120,180,93); fill-opacity:1.0; stroke-linejoin: miter">
</g>
<g style="fill:rgb(120,180,93); fill-opacity:1.0; stroke-linejoin: miter">
</g>
<g style="fill:rgb(120,180,93); fill-opacity:1.0; stroke-linejoin: miter">
</g>
<g style="fill:rgb(120,180,93); fill-opacity:1.0; stroke-linejoin: miter">
</g>
<g style="fill:rgb(120,180,93); fill-opacity:1.0; stroke-linejoin: miter">
</g>
<g style="fill:rgb(120,180,93); fill-opacity:1.0; stroke-linejoin: miter">
</g>
<g style="fill:rgb(120,180,93); fill-opacity:1.0; stroke-linejoin: miter">
</g>
</g>
<g style="fill:rgb(0,0,0); fill-opacity:0.4627451; stroke-linejoin: miter">
</g>
<g>
<g style="fill:rgb(244,245,245); fill-opacity:1.0; stroke-linejoin: miter">
<path d="M691.3433,624.67426L691.3433,617.99493L696.43225,616.40466Q703.1115,613.86017,705.46515,609.7254Q707.8824,605.5906,707.8824,598.5934Q708.20044,580.464,708.20044,562.2074Q708.20044,543.8872,708.20044,525.43976L708.20044,513.9896Q708.20044,495.54224,708.07324,477.28558Q707.8824,458.9654,707.8824,440.51794Q707.8824,432.88452,705.65594,428.9406Q703.42957,424.93304,696.43225,422.70667L691.3433,421.1164L691.3433,414.43713L781.036,414.44348Q819.20306,414.43713,836.3783,428.62256Q853.55347,442.7444,853.55347,464.37238Q853.55347,480.91144,841.46716,494.14276Q829.381,507.31036,799.16534,513.03546Q834.15186,516.8521,849.73676,531.16486Q865.3216,545.4775,865.3216,566.1513Q865.3216,576.3292,860.86884,586.69794Q856.416,597.00305,845.7928,605.5906Q835.106,614.1782,816.9766,619.458Q798.8472,624.67426,771.17615,624.67426L691.3433,624.68054 M753.3648,510.80902L768.3136,510.81537Q789.9416,510.80902,799.67426,501.14Q809.34326,491.4074,809.34326,467.8711Q809.34326,443.3805,800.4376,433.5207Q791.5319,423.66083,772.44836,423.66083L753.3648,423.66718L753.3648,510.80902 M753.3648,615.45044L770.8581,615.45685Q794.7125,615.45044,806.4807,603.68225Q818.2489,591.91406,818.2489,565.83325Q818.2489,540.7066,806.9896,530.4015Q795.66675,520.0328,769.90393,520.0328L753.3648,520.03906L753.3648,615.45044 Z M880.2704,624.67426L880.2704,618.6311L885.04126,617.3589Q895.5373,613.86017,895.5373,601.4559Q895.5373,590.6419,895.7281,579.7006Q895.85535,568.6958,895.85535,557.8818L895.85535,437.01935Q895.85535,430.3401,893.6289,427.03223Q891.40247,423.66083,885.04126,422.07056L880.2704,420.79828L880.2704,414.75513L935.9308,401.39673L940.06555,404.25922L938.7933,449.1056L938.7933,601.4559Q939.1114,607.817,941.5286,611.8246Q943.88226,615.7685,949.92535,617.3589L954.3782,618.6311L954.3782,624.67426L880.2704,624.68054 Z M1048.2057,467.23492Q1068.2434,467.23492,1082.556,475.50446Q1096.8687,483.77405,1104.693,498.27753Q1112.4535,512.71735,1112.4535,531.4829Q1112.4535,535.6176,1112.1355,539.3071Q1111.8175,542.933,1110.8633,546.11365L1015.12756,546.11993Q1015.44556,578.8737,1027.4047,593.18634Q1039.2999,607.49896,1062.2002,607.49896Q1078.1031,607.49896,1087.963,602.28284Q1097.8229,597.00305,1106.0924,587.4613L1111.1813,592.2322Q1101.6395,609.7254,1085.2913,619.458Q1068.8794,629.127,1046.2972,629.127Q1023.715,629.127,1006.5399,619.5852Q989.3647,610.04346,979.69574,592.105Q969.96313,574.1028,969.96313,548.97614Q969.96313,522.89526,981.286,504.76587Q992.5453,486.63654,1010.5474,476.96753Q1028.486,467.23492,1048.2057,467.23492 M1046.6152,476.45862Q1037.3916,476.45862,1030.5851,481.7384Q1023.715,486.9546,1019.7712,500.1859Q1015.76355,513.3535,1015.12756,537.20795L1072.06,537.2143Q1075.5587,505.08398,1069.5155,490.77124Q1063.4724,476.45862,1046.6152,476.45862 Z M1128.6746,624.67426L1128.6746,618.6311L1133.7635,617.3589Q1144.2594,614.1782,1144.2594,601.7739L1144.2594,507.94647Q1143.9414,501.26727,1142.0331,497.64136Q1140.1248,493.9519,1133.7635,492.67963L1128.6746,491.4074L1128.6746,485.68237L1180.2002,467.23492L1184.0168,470.73358L1186.2433,490.45325Q1197.6934,480.27533,1211.8789,473.78693Q1226.0007,467.23492,1239.6772,467.23492Q1260.6691,467.23492,1271.9921,478.68506Q1283.2513,490.1352,1283.2513,513.6715L1283.2513,602.092Q1283.2513,614.49634,1294.7014,617.6769L1298.2002,618.6311L1298.2002,624.67426L1225.0466,624.68054L1225.0466,618.6311L1229.8174,617.3589Q1240.3134,613.86017,1240.3134,601.7739L1240.3134,507.31036Q1240.3134,496.17828,1235.5425,491.08936Q1230.7716,486.00037,1219.6395,486.00037Q1204.0546,486.00037,1187.1975,499.677L1187.1975,602.092Q1187.1975,614.49634,1198.3296,617.6769L1201.51,618.6311L1201.51,624.67426L1128.6746,624.68054 Z M1378.0328,629.127Q1359.2675,629.127,1344.3186,620.7303Q1329.3699,612.2699,1320.9731,594.6494Q1312.5128,576.9654,1312.5128,549.61224Q1312.5128,522.25916,1322.0546,504.00262Q1331.5963,485.68237,1347.4993,476.45862Q1363.4022,467.23492,1382.4857,467.23492Q1393.9359,467.23492,1404.4319,469.9702Q1414.9279,472.64197,1422.8792,478.0489L1422.8792,436.70123Q1422.8792,430.02203,1420.8438,427.03223Q1418.7445,423.97888,1412.3833,422.3886L1406.0221,421.1164L1406.0221,415.07324L1461.3645,401.39673L1465.4991,404.25922L1464.227,449.1056L1464.227,602.092Q1464.227,608.13513,1466.4532,612.14264Q1468.6798,616.0866,1474.4048,617.6769L1477.9036,618.6311L1477.9036,624.67426L1425.1057,628.17285L1422.2432,614.8144Q1413.6556,621.4936,1402.5236,625.31036Q1391.3915,629.127,1378.0328,629.127 M1395.5261,614.49634Q1409.2028,614.49634,1421.2891,605.5906L1421.2891,487.27264Q1409.5209,479.95734,1395.8442,479.95734Q1380.2593,479.95734,1369.1273,496.36914Q1357.9954,512.71735,1357.9954,548.97614Q1357.9954,585.23486,1368.4912,599.86554Q1378.9872,614.49634,1395.5261,614.49634 Z M1533.246,629.127Q1522.1138,629.127,1514.3531,621.4936Q1506.5288,613.86017,1506.5288,603.04626Q1506.5288,591.91406,1514.3531,583.9626Q1522.1138,576.0111,1533.246,576.0111Q1544.3779,576.0111,1552.202,583.9626Q1559.9629,591.91406,1559.9629,603.04626Q1559.9629,613.86017,1552.202,621.4936Q1544.3779,629.127,1533.246,629.127 Z M1624.5288,449.7417Q1614.0328,449.7417,1606.7175,443.06244Q1599.4021,436.38318,1599.4021,426.20532Q1599.4021,415.70935,1606.7175,409.22095Q1614.0328,402.66895,1624.5288,402.66895Q1635.0248,402.66895,1642.3401,409.22095Q1649.6554,415.70935,1649.6554,426.20532Q1649.6554,436.38318,1642.3401,443.06244Q1635.0248,449.7417,1624.5288,449.7417 M1587.952,624.67426L1587.952,618.6311L1592.7229,617.3589Q1599.0841,615.45044,1601.3105,611.6337Q1603.537,607.817,1603.855,601.4559L1603.855,542.933Q1603.855,533.0732,1603.855,524.67645Q1603.855,516.21606,1603.537,507.31036Q1603.537,500.94916,1601.1832,497.3233Q1598.766,493.63385,1592.4048,492.36163L1587.952,491.4074L1587.952,485.68237L1643.6123,467.23492L1647.4291,470.73358L1646.4749,515.89795L1646.4749,601.7739Q1646.4749,608.13513,1648.8921,611.95184Q1651.2457,615.7685,1657.2888,617.6769L1660.7875,618.6311L1660.7875,624.67426L1587.952,624.68054 Z M1754.297,629.127Q1730.7605,629.127,1713.1401,619.2672Q1695.456,609.40735,1685.7871,591.278Q1676.0543,573.1487,1676.0543,548.022Q1676.0543,522.89526,1686.423,504.76587Q1696.7281,486.63654,1714.4124,476.96753Q1732.0328,467.23492,1754.297,467.23492Q1776.561,467.23492,1794.245,476.96753Q1811.8655,486.63654,1822.2343,504.63867Q1832.5394,522.5772,1832.5394,548.022Q1832.5394,573.1487,1822.8705,591.4689Q1813.1378,609.7254,1795.6447,619.458Q1778.1514,629.127,1754.297,629.127 M1754.297,620.2214Q1765.7471,620.2214,1772.9352,614.05096Q1780.0596,607.817,1783.2401,592.2322Q1786.4208,576.6473,1786.4208,548.6581Q1786.4208,520.3508,1783.2401,504.63867Q1780.0596,488.8629,1772.9352,482.69263Q1765.7471,476.45862,1754.297,476.45862Q1742.8469,476.45862,1735.8494,482.69263Q1728.8522,488.8629,1725.5443,504.63867Q1722.173,520.3508,1722.173,548.6581Q1722.173,576.6473,1725.5443,592.2322Q1728.8522,607.817,1735.8494,614.05096Q1742.8469,620.2214,1754.297,620.2214 Z"/>
</g>
</g>
</g>
</svg>